# xmcd
#
# Track frame offsets: 
#        150
#        17785
#        40516
#        57140
#        91367
#        107638
#        123563
#        139135
#        151024
#        178058
#        206403
#
# Disc length: 4264 seconds
#
# Revision: 3
# Processed by: cddbd v1.5.2PL0 Copyright (c) Steve Scherf et al.
# Submitted via: ExactAudioCopy v1.0b3
#
DISCID=8910a60b
DTITLE=Diverse - The Chesky Story [10-1999]
DYEAR=1999
DGENRE=Audiophile
TTITLE0=Paquito d'Rivera - Mambo à la Kenton
TTITLE1=Carla Lother - Jaelish
TTITLE2=Dave's True Story - Sex Without Bodies
TTITLE3=Jon Faddis - Riverside Park
TTITLE4=Sara K. - Ball 'n' Joint
TTITLE5=Chuck Mangione - Aldovio
TTITLE6=Livingston Taylor - Our Turn To Dance
TTITLE7=Rebecca Pidgeon - Mac Dougall's Men
TTITLE8=Babatunde Olatunji - Saré Tete Wa
TTITLE9=Anna Caram - Africando
TTITLE10= Daten
EXTD=YEAR: 1999
EXTT0=
EXTT1=
EXTT2=
EXTT3=
EXTT4=
EXTT5=
EXTT6=
EXTT7=
EXTT8=
EXTT9=
EXTT10=
PLAYORDER=
